# xmcd
# 
# Track frame offsets:
#     150
#     20383
#     42338
#     64848
#     89432
#     120177
#     151189
#     177939
#     201143
#     221433
#     239327
#     259732
#     283298
#     301490
#     318249
#     334443
# 
# Disc length: 4776
# 
# Revision: 5
# Processed by: cddbd v1.5.2PL0 Copyright (c) Steve Scherf et al.
# Submitted via: fre:ac v1.0.31
# 
DISCID=e312a610
DTITLE=Original Soundtrack - I'm Not There Disc 1
DYEAR=2007
DGENRE=Soundtrack
TTITLE0=Eddie Vedder and The Million Dollar Bashers - All Along The Watchtower
TTITLE1=Sonic Youth - I'm Not There
TTITLE2=Jim James and Calexico - Goin' To Acapulco
TTITLE3=Richie Havens - Tombstone Blues
TTITLE4=Stephen Malkmus and The Million Dollar Bashers - Ballad Of A Thin Man
TTITLE5=Cat Power - Stuck Inside Of Mobile With The Memphis Blues Again
TTITLE6=John Doe - Pressing On
TTITLE7=Yo La Tengo - Fourth Time Around
TTITLE8=Iron and Wine and Calexico - Dark Eyes
TTITLE9=Karen O and The Million Dollar Bashers - Highway 61 Revisited
TTITLE10=Roger McGuinn and Calexico - One More Cup Of Coffee
TTITLE11=Mason Jennings - The Lonesome Death Of Hattie Carroll
TTITLE12=Los Lobos - Billy 1
TTITLE13=Jeff Tweedy - Simple Twist Of Fate
TTITLE14=Mark Lanegan - Man In The Long Black Coat
TTITLE15=Willie Nelson and Calexico - Señor (Tales Of Yankee Power)
EXTD=YEAR: 2007
EXTT0=
EXTT1=
EXTT2=
EXTT3=
EXTT4=
EXTT5=
EXTT6=
EXTT7=
EXTT8=
EXTT9=
EXTT10=
EXTT11=
EXTT12=
EXTT13=
EXTT14=
EXTT15=
PLAYORDER=
